# xmcd
#
# Track frame offsets:
#	150
#	24368
#	36814
#	48954
#	61469
#	73524
#	86295
#	99411
#	108147
#	121786
#	137370
#	148057
#	159814
#	170501
#	183320
#	193161
#	207438
#	220021
#	237454
#	246146
#	257202
#
# Disc length: 3586 seconds
#
# Revision: 1
# Processed by: cddbd v1.5.2PL0 Copyright (c) Steve Scherf et al.
# Submitted via: EZCDAudioConverter 3.0.8.1
#
DISCID=1d0e0015
DTITLE=Various Artist - Beginner's Guide to the Blues cd2 Down
DYEAR=1900
DGENRE=Blues
TTITLE0=Seasick Steve - Seasick Boogie
TTITLE1=Jimmy Reed - Big Boss Man
TTITLE2=Howlin Wolf - Moanin At Midnight
TTITLE3=Lightning Hopkins - Fan It
TTITLE4=Champion Jack Dupree - Dirty Woman
TTITLE5=Little Walter - Everything Gonna Be Alright
TTITLE6=Big Bill Broonzy - Hey Hey
TTITLE7=Sonny Boy Williamson II - Checkin up On My Baby
TTITLE8=Guitar Slim - The Things That I Used To Do
TTITLE9=Ray Charles - Night time is The Right Time
TTITLE10=Big Joe Turner - Blues In The Night
TTITLE11=Freddy King - Hideaway
TTITLE12=Otis Rush - I'm Satisfied
TTITLE13=T Bone Walker - Two Bones and A Pick
TTITLE14=Johnny Otis - Castin My Spell On You
TTITLE15=B.B. King - Whole Lotta Love
TTITLE16=Albert King - Born Under A Bad Sign
TTITLE17=Muddy Waters - I'm A King Bee
TTITLE18=Lavern Baker - Love Me Right
TTITLE19=Screaming Jay Hawkins  - I Put A Spell On You
TTITLE20=Johny 'Guitar' Watson - Space Guitar
EXTD=
EXTT0=
EXTT1=
EXTT2=
EXTT3=
EXTT4=
EXTT5=
EXTT6=
EXTT7=
EXTT8=
EXTT9=
EXTT10=
EXTT11=
EXTT12=
EXTT13=
EXTT14=
EXTT15=
EXTT16=
EXTT17=
EXTT18=
EXTT19=
EXTT20=
PLAYORDER=
